<svg version="1.1" xmlns="http://www.w3.org/2000/svg" viewBox="0 0 934.3937892883249 737.0697605374373" width="1868.7875785766498" height="1474.1395210748747" filter="invert(93%) hue-rotate(180deg)">
  <!-- svg-source:excalidraw -->
  
  <defs>
    <style class="style-fonts">
      @font-face {
        font-family: "Virgil";
        src: url("https://excalidraw.com/Virgil.woff2");
      }
      @font-face {
        font-family: "Cascadia";
        src: url("https://excalidraw.com/Cascadia.woff2");
      }
      @font-face {
        font-family: "Assistant";
        src: url("https://excalidraw.com/Assistant-Regular.woff2");
      }
    </style>
    
  </defs>
  <g transform="translate(611.6420784885541 217.23518118415654) rotate(0 -20.825170215252854 137.87926583224794)" stroke="none"><path d="M-164.01 56.18 C-164.01 56.18, -164.01 56.18, -164.01 56.18 M-164.01 56.18 C-164.01 56.18, -164.01 56.18, -164.01 56.18 M-183.37 94.13 C-169.98 71.97, -151.88 55.87, -131.28 29 M-182.92 90.07 C-163.59 66.56, -146.74 47.67, -130.7 27.22 M-181.18 103.55 C-160.15 77.72, -143.02 52.3, -107.02 11.03 M-184.67 102.61 C-167.23 83.82, -149.72 63.3, -104.36 11.88 M-184.55 118.89 C-157.47 82.59, -129.9 53.28, -89.25 6.75 M-183.34 115.17 C-153.05 80.93, -121.86 45.5, -89.29 5.9 M-181.63 127.1 C-153.11 87.02, -118.52 46.68, -77.36 1.9 M-184.28 127.2 C-153.53 93, -121.53 54.51, -75.79 5.27 M-181.07 137.45 C-152.51 109.53, -124.67 77.96, -67.05 4.86 M-182.14 138.53 C-156.3 107.36, -130.8 73.35, -66.14 4.42 M-186.69 154.94 C-142.76 108.07, -102.07 59.78, -49.92 1.39 M-182.34 152.31 C-146.44 108.09, -111.57 69.43, -50.32 -1.39 M-180.31 160.61 C-140.03 119.7, -104.99 74.25, -37.42 -4.65 M-184.97 164.54 C-131.94 97.37, -76.45 37.74, -40.17 -3.77 M-183.43 178.82 C-139.26 130.03, -98.55 79.04, -30.36 -4.06 M-181.73 175.37 C-134.31 121.63, -88.01 64.69, -29.08 -3 M-184.65 189.41 C-138.82 134.28, -89.04 83.18, -17.8 -0.51 M-182.37 188.46 C-117.22 116.46, -55.86 43.41, -16.52 -3.69 M-182.38 195.48 C-133.46 144.6, -86.25 87.24, -5.65 -1.89 M-178.93 196.73 C-138.91 149.77, -99.65 99.61, -5.82 -1.63 M-176.07 205.89 C-103.97 123.58, -34.05 43.19, 0.93 0.51 M-174.95 202.94 C-129.02 148.48, -81.17 95.85, 0.52 -0.68 M1.1 -0.27 C1.49 -0.14, 2.06 -1.24, 3.36 -2.11 M1.37 -0.25 C2.27 -0.36, 2.62 -1.03, 3.39 -2.11 M-170.49 212.69 C-122.21 153.65, -70.19 96.24, 13.81 0.36 M-172.06 211.92 C-100.4 129.74, -30.03 48.35, 13.3 0.96 M13.54 -1.58 C13.47 -1.6, 13.86 -1.91, 14.1 -2.26 M13.38 -1.56 C13.66 -1.72, 13.79 -1.94, 14.1 -2.35 M-167.95 215.17 C-101.98 141.17, -33.31 66.21, 23.53 -1.11 M-165.49 219.27 C-110.83 150.59, -54.13 85.74, 20.82 -0.56 M-162.22 225.12 C-124.26 175.37, -84.26 129.21, 30.03 1.38 M-160.6 222.83 C-102.94 157.58, -44.66 90.77, 31.46 0.58 M-156.19 226.46 C-105.94 169.81, -52.61 110.07, 44.96 -2.12 M-154.91 229.29 C-91.7 159.78, -31.31 90.34, 43.83 0.09 M-151.5 232.21 C-95.46 173.3, -48.38 114.69, 55.05 2.36 M-149.07 233.9 C-96.74 177.73, -49.53 124.33, 52.35 0.99 M-141.45 239.31 C-95.19 190.75, -55.23 142.92, 51.04 11.91 M-140.52 238.34 C-80.38 168.2, -20.39 102.36, 53.73 12.97 M-134.41 240.06 C-96.55 197.85, -55.91 150.95, 51.56 29.31 M-134.27 242.33 C-67.13 163.33, 0.96 87.81, 53.57 27.64 M-126.07 244.98 C-81.43 197.26, -41.31 149.13, 11.61 87.96 M-126.87 245.22 C-87.51 199.63, -44.52 151.97, 10.45 88.63 M-121.48 249.59 C-86.28 217.01, -62.14 183.66, 13.29 96.18 M-120.67 249.56 C-93.3 218.46, -63.11 184.36, 13.53 96.21 M-113.4 248.25 C-62.05 194.8, -17.99 142.54, 21.02 97.9 M-109.75 251 C-62.88 201.18, -21.36 152.16, 21.65 100.42 M-101 253.22 C-75.85 222.82, -45.98 188.96, 25.3 106.47 M-104.31 256.37 C-67.21 211.56, -28.36 168.48, 26.86 103.71 M-94.5 260.87 C-59.86 217.57, -21.79 170.97, 32.28 105.49 M-95.95 256.81 C-44.97 199.58, 5.28 143.72, 35.25 105.85 M-90.42 261.35 C-45.18 222.31, -11.97 174.06, 46.97 106.48 M-88.94 260.27 C-39.82 204.58, 11.76 146.62, 46.21 110.57 M-82.64 261.82 C-37.79 210.51, 4.71 165.44, 52.1 111.22 M-79.24 263.67 C-33.59 206.05, 15.28 149.71, 54.4 110.74 M-69.12 270.29 C-32.45 223.97, -1.97 186.66, 60.51 114.93 M-70.37 266.83 C-43.9 232.75, -17.67 199.52, 62.37 115.93 M-62.75 268.68 C-13.1 213.67, 36.23 151.37, 71.24 119.29 M-63.2 269.85 C-33.21 234.43, -6.82 202.64, 70.4 116.51 M-57.77 270.26 C-7.86 215.34, 38.91 161.09, 80.09 120.89 M-52.96 270.96 C-28.64 239.72, 2.04 207.1, 76.09 117.98 M-47.8 272.36 C-2.89 225.5, 36.96 181.28, 89.17 120.43 M-47.69 275.75 C-20.77 240.2, 10.72 208.3, 85.4 122.78 M-36.51 278.34 C8.55 228.58, 44.64 176.69, 96.03 125.52 M-37.82 273.9 C7.94 225, 54.14 171.71, 94.28 125.23 M-28.35 280.41 C6.67 242.06, 39.44 205.37, 99.89 127.87 M-26.72 278.67 C20.54 218.5, 73.35 160.05, 103.7 125.75 M-18.32 274.9 C21.93 244.21, 51.57 198.27, 110.99 127.66 M-19.03 279.23 C15.16 243.13, 45.16 210.4, 110.56 129.79 M-3.71 275.28 C23.84 236.61, 57.24 201.68, 116.23 131.31 M-7.55 280.04 C41.45 222.8, 92.74 166.7, 118.58 135.26 M5.99 280.15 C42.29 236.42, 76.76 198.81, 126.13 138.41 M1.15 279.1 C44.1 229.68, 83.15 183.95, 125.68 136.81 M10.18 280.66 C47.97 239.97, 86.19 194.32, 132.34 143.95 M14.4 279.19 C53.28 230.7, 95.34 185.08, 128.91 142.53 M24.03 276.79 C63.07 228.94, 105.37 182.07, 133.47 150.05 M26.24 277.16 C53.32 243.88, 84.61 209.63, 134.36 152.82 M33.37 272.14 C69.45 238.13, 103.58 204.84, 140.6 158.36 M35.91 274.18 C65.55 247.19, 89.76 219.39, 140.37 157.98 M53.44 268.3 C84.32 240.41, 113.3 206.42, 142.22 171.69 M52.39 271.31 C81.16 239.26, 111.34 206.9, 142.18 167.27 M68.65 269.07 C92.93 237.08, 122.48 201.1, 144.41 183.35 M65.76 269.08 C93.6 231.36, 125.4 196.45, 141.74 179.49 M96.99 249.86 C105.06 229.8, 122.78 210.84, 139.03 191.05 M93.36 246.2 C114.02 224.87, 130.92 204.47, 139.65 192.25 M-169.16 215.93 C-169.16 215.93, -169.16 215.93, -169.16 215.93 M-169.16 215.93 C-169.16 215.93, -169.16 215.93, -169.16 215.93 M-118.73 249.86 C-139.83 224.02, -167.78 205.88, -181.44 196.96 M-123.86 247.88 C-142.67 230.26, -159 213.42, -179.42 193.2 M-94.98 255.55 C-129.86 234.1, -156.85 209.72, -183.93 183.67 M-98.67 255.33 C-121.82 235.88, -147.58 214.2, -184.68 183.34 M-77.53 267.29 C-105.82 244.08, -134.43 218.81, -181.6 174.57 M-77.38 266.28 C-109.14 237.71, -142.86 210.88, -181.11 172.6 M-56.63 272.04 C-85.51 245.65, -113.98 219.33, -180.9 163.93 M-56.42 271.21 C-104.09 231.95, -149.28 189.57, -183.72 159.67 M-41.51 274.57 C-86.15 235.57, -134.98 191.96, -185.39 150.97 M-42.77 275.26 C-91.1 224.29, -144.61 181.18, -184.35 150.18 M-27.87 280.56 C-84.63 224.45, -145.1 169.58, -184.48 143.05 M-26.35 279.14 C-89.17 225.85, -148.63 172.49, -183.31 140.04 M-15.14 275.92 C-69.94 228.46, -124.26 178.89, -185.57 125.91 M-11.52 277.13 C-63.66 233.92, -114.44 190.9, -185.41 128.84 M2.59 276.13 C-50.27 234.97, -107.28 190.1, -182.41 120.38 M0.7 278.39 C-69.14 221.26, -135.95 163.94, -184.12 119.01 M11.17 278.66 C-57.38 217.11, -131.35 149.44, -186.02 110.39 M10.59 277.83 C-61.6 214.84, -134.17 151.43, -182.47 107.83 M20.6 275.56 C-52.32 207.08, -126.35 141.77, -183.68 98.98 M22.99 275.53 C-33.52 227.87, -87.44 181.79, -183.45 97.95 M34.14 274.74 C-34.22 215.03, -100.16 155.75, -180.88 85 M32.28 275.17 C-27.59 220.39, -87.38 168.59, -183.65 86.5 M40.67 271.39 C-42.88 195.65, -127.43 121.99, -183.08 78.66 M44.16 273.1 C-33.69 210.22, -106.99 148.15, -181.07 77.67 M51.75 273.35 C-40.16 190.44, -132.45 112.04, -177.18 73.91 M52.97 271.16 C2.95 227.08, -44.47 185.03, -176.84 71.04 M64.01 269.75 C-29.09 183.4, -124.7 104.3, -170 62.98 M60.88 267.23 C-18.95 196.71, -98.68 127.03, -171.02 66.45 M70.17 265 C14.34 210.91, -46.36 161.35, -165.68 58.1 M68.35 265.27 C-18.04 188.42, -108.08 113.52, -167.48 58.48 M75.43 260.02 C-13.97 184.16, -104.37 103.48, -160.72 55.55 M75.99 258.35 C-4.35 189.77, -88.36 117.68, -161.97 55.03 M82.47 254.41 C31.95 211.72, -17.25 168.57, -155.57 47.7 M82.18 253.28 C12.64 194.91, -54.23 135.9, -154.16 47.31 M88.83 249.29 C35.52 199.81, -21.23 150.77, -145.08 43.19 M88.28 248.92 C7.32 177.8, -74.45 106.37, -148.55 44.21 M95.25 244.57 C40.65 193.76, -21.63 140.42, -141.34 38.66 M93.77 244.71 C32.08 195.59, -26.42 143.25, -140.85 39.57 M104 242.06 C15.61 159.02, -69.43 87.95, -133.52 35.39 M102.57 239.25 C53.56 198.12, 4.23 156.13, -133.76 34.2 M107.96 235.07 C48.17 177.4, -13.07 123.54, -130.04 26.08 M107.4 233.9 C35.21 166.75, -39.86 102.41, -128.43 26.79 M115.82 227.25 C44.59 170.98, -27.87 109.91, -123.34 23.52 M114.5 227.22 C34.14 161.67, -47.22 92.42, -122.4 22.37 M118.01 221.16 C35.49 154.01, -46.62 81.69, -114.96 18.99 M118.97 223.25 C49.32 159.02, -21.66 99.94, -115.32 17.57 M123 214.73 C52.05 155.95, -19.64 93.75, -108.79 10.8 M123.59 214.9 C73.54 169.5, 23.89 126.02, -109.77 11.87 M130.42 208.21 C57.1 143.45, -16.45 83.07, -99.7 10.38 M129.84 210.71 C45.66 141.53, -33.17 73.72, -100.33 9.09 M134.52 202 C68.2 145.87, -5.22 82.66, -89.95 8.46 M135.39 205.25 C68.28 145.14, 1.77 89, -92.06 9.23 M134.84 196.47 C121.33 184, 93.74 160.6, 33.11 105.3 M137.53 195.41 C117.3 174.22, 90.14 155.74, 33.07 105.28 M8.17 88.35 C-11.15 68.38, -30.53 43.51, -83.27 4.99 M10.55 84.84 C-9.35 65.8, -29.49 45.48, -79.9 6.88 M139.8 187.15 C108.61 161.67, 78.19 134.6, 50.86 109.54 M142.56 191.01 C107.94 160.32, 71.18 130.17, 49.71 109.67 M16.46 80.74 C-6.3 64.87, -28.95 45.58, -68.87 1.87 M14.1 79.63 C-12.21 53.15, -40.03 30.06, -73.91 4.18 M143.2 179.76 C112.15 157.33, 91.37 129.74, 70.8 119.18 M140.57 177.9 C122.98 161.13, 103.43 144.42, 67.44 115.13 M17.46 69.91 C-7.09 51.46, -29.91 29.5, -60.82 -1.38 M17.65 72.48 C-0.91 55.27, -18.83 39.87, -62.29 2.76 M142.86 166.48 C126.8 151.56, 110.65 138.43, 85.16 123.7 M140.4 167.68 C128.07 153.89, 110.99 142.41, 85.41 118.93 M21.66 68.31 C-7.53 42.01, -28.17 13.91, -49.47 -0.76 M22.98 65.19 C6.12 50.66, -14.48 36.79, -53.73 -2.17 M132.44 148.29 C128.59 145.35, 116.82 142.68, 109.8 127.86 M133.73 150.19 C127.5 142.42, 114.91 133.07, 110.38 130.06 M28.11 60.99 C13.48 46.68, -5.02 29.97, -44.85 0.4 M28.44 60.71 C7.08 44.89, -13.15 25.85, -43.56 -3.21 M31.83 52.01 C11.41 31.4, -10.43 19.42, -26.94 -4.49 M35.55 52.62 C14.48 36.21, -1.43 21.52, -32.33 -0.94 M39.46 49.7 C28.63 39.33, 14.25 29.33, -18.37 -2.71 M37.99 49.1 C25.04 33.92, 12.35 24.51, -17.47 -4.97 M41.82 40.4 C28.17 29.77, 16.59 17.24, -3.13 -6.36 M44.72 39.53 C31.24 31.11, 18.08 15.84, -7.8 -3.9 M49.37 34.25 C36.93 29.97, 29.14 16.11, 6.04 1.4 M50.69 34.98 C40.09 26.95, 29.72 19.76, 7.36 -0.31 M7.93 -1.3 C7.66 -1.36, 7.1 -2.03, 6.23 -2.52 M7.73 -1.43 C7.1 -1.63, 6.68 -2.24, 6.41 -2.46 M49.85 29.18 C44.69 16.34, 26.49 6.47, 20.44 -2.31 M53.93 28.14 C41.8 19, 32.45 9.74, 20.79 0.86 M55.53 17.12 C49.06 10.85, 43.43 7.7, 34.22 0.48 M54.64 15.3 C47.44 12.95, 39.64 6.58, 35.16 0.49 M53.22 5.7 C51.15 5.91, 50.44 1.68, 45.4 2.14 M52.52 6.44 C51.02 3.75, 47.93 2.67, 47.32 0.93" stroke="#e5ff44" stroke-width="1" fill="none"></path><path fill="#1e1e1e" d="M 0,-4.47 Q 0,-4.47 4.65,-4.23 9.31,-3.98 13.83,-3.80 18.35,-3.62 22.70,-3.48 27.05,-3.35 30.51,-3.42 33.98,-3.49 36.44,-3.67 38.90,-3.84 41.59,-4.14 44.28,-4.43 47.34,-4.41 50.40,-4.40 52.30,-3.24 54.21,-2.08 55.52,-0.35 56.83,1.37 57.97,5.44 59.10,9.51 59.26,14.16 59.41,18.80 58.85,22.32 58.29,25.84 56.32,30.06 54.36,34.29 51.09,38.90 47.81,43.51 43.84,48.30 39.88,53.09 35.93,57.33 31.99,61.57 28.76,64.71 25.53,67.85 23.25,70.26 20.97,72.67 19.57,74.56 18.17,76.46 16.88,79.08 15.59,81.71 15.60,84.74 15.61,87.77 17.37,89.87 19.13,91.96 21.79,94.11 24.44,96.26 28.57,98.47 32.70,100.68 37.97,102.72 43.24,104.76 49.25,106.72 55.26,108.69 61.58,110.60 67.91,112.52 74.14,114.37 80.36,116.22 86.33,118.13 92.29,120.05 97.64,121.96 102.99,123.87 107.30,125.54 111.61,127.21 114.83,128.46 118.05,129.71 120.54,130.78 123.03,131.84 125.39,133.40 127.75,134.96 130.09,137.59 132.43,140.21 134.51,143.46 136.58,146.72 138.39,150.22 140.19,153.71 141.69,157.14 143.19,160.57 144.18,164.29 145.17,168.00 145.55,172.12 145.92,176.24 145.66,180.68 145.41,185.11 143.69,190.16 141.98,195.21 138.16,201.01 134.35,206.80 129.13,213.40 123.91,220.00 117.72,226.75 111.52,233.51 104.65,239.95 97.78,246.39 90.98,251.89 84.19,257.39 77.31,261.59 70.44,265.79 60.81,269.34 51.19,272.88 37.82,275.29 24.46,277.71 10.15,278.55 -4.15,279.39 -18.26,278.33 -32.38,277.26 -45.81,274.45 -59.24,271.63 -70.58,268.31 -81.93,264.98 -91.36,261.65 -100.79,258.31 -109.21,254.95 -117.63,251.59 -125.23,248.10 -132.83,244.60 -139.36,240.87 -145.90,237.14 -151.19,233.50 -156.49,229.86 -160.63,226.42 -164.78,222.98 -168.03,219.37 -171.28,215.77 -173.80,212.51 -176.32,209.25 -178.38,206.37 -180.43,203.50 -181.99,200.23 -183.54,196.97 -184.51,192.80 -185.49,188.63 -186.04,182.79 -186.60,176.96 -186.80,168.73 -187.01,160.51 -187.07,151.05 -187.14,141.60 -187.15,132.39 -187.17,123.17 -187.16,114.94 -187.16,106.72 -186.70,99.85 -186.24,92.98 -184.96,87.36 -183.67,81.74 -181.67,77.20 -179.66,72.65 -177.25,68.94 -174.85,65.24 -172.44,62.20 -170.04,59.16 -167.71,56.54 -165.39,53.93 -163.18,51.66 -160.97,49.40 -158.73,47.29 -156.48,45.18 -154.13,43.10 -151.78,41.01 -147.20,37.78 -142.62,34.55 -138.93,31.81 -135.24,29.06 -132.20,26.58 -129.15,24.10 -126.73,21.93 -124.30,19.77 -122.34,17.96 -120.39,16.15 -117.13,13.51 -113.88,10.87 -111.97,9.87 -110.06,8.87 -107.80,8.10 -105.54,7.32 -103.15,6.72 -100.76,6.12 -98.50,5.46 -96.24,4.80 -93.84,4.08 -91.43,3.37 -89.14,2.69 -86.85,2.00 -84.70,1.35 -82.54,0.70 -80.45,0.09 -78.36,-0.51 -75.91,-1.12 -73.45,-1.73 -70.30,-2.32 -67.14,-2.90 -64.10,-3.48 -61.06,-4.07 -58.37,-4.66 -55.68,-5.25 -53.21,-5.83 -50.73,-6.42 -48.38,-6.90 -46.02,-7.38 -43.78,-7.65 -41.53,-7.91 -39.36,-8.05 -37.18,-8.18 -34.63,-8.22 -32.07,-8.25 -29.26,-8.23 -26.45,-8.20 -23.72,-8.19 -21.00,-8.17 -18.65,-8.20 -16.29,-8.23 -12.69,-8.34 -9.08,-8.46 -6.28,-8.58 -3.49,-8.70 -0.93,-8.79 1.62,-8.89 3.79,-9.01 5.96,-9.12 8.45,-9.22 10.93,-9.32 13.22,-9.31 15.52,-9.29 16.31,-9.19 17.11,-9.10 17.87,-8.81 18.62,-8.53 19.28,-8.07 19.94,-7.61 20.48,-7.01 21.01,-6.41 21.38,-5.70 21.76,-4.98 21.95,-4.20 22.14,-3.42 22.14,-2.62 22.14,-1.81 21.95,-1.03 21.76,-0.25 21.38,0.45 21.01,1.17 20.48,1.77 19.94,2.37 19.28,2.83 18.62,3.29 17.86,3.57 17.11,3.86 16.31,3.95 15.51,4.05 8.23,4.83 0.94,5.61 0.02,5.62 -0.89,5.62 -1.77,5.33 -2.64,5.04 -3.38,4.49 -4.11,3.93 -4.63,3.17 -5.16,2.41 -5.41,1.53 -5.66,0.64 -5.61,-0.27 -5.57,-1.19 -5.23,-2.05 -4.89,-2.91 -4.30,-3.62 -3.71,-4.32 -2.92,-4.80 -2.13,-5.28 -1.23,-5.48 -0.33,-5.68 0.58,-5.59 1.49,-5.49 2.33,-5.11 3.17,-4.73 3.84,-4.10 4.52,-3.47 4.95,-2.65 5.39,-1.84 5.54,-0.93 5.69,-0.02 5.55,0.88 5.40,1.79 4.98,2.61 4.55,3.42 3.88,4.06 3.22,4.70 2.38,5.09 1.55,5.48 0.63,5.58 -0.28,5.69 -1.18,5.49 -2.08,5.30 -2.87,4.83 -3.66,4.36 -4.26,3.66 -4.86,2.96 -5.21,2.10 -5.56,1.25 -5.61,0.33 -5.66,-0.59 -5.42,-1.47 -5.18,-2.36 -4.66,-3.13 -4.15,-3.90 -3.42,-4.46 -2.69,-5.02 -1.81,-5.32 -0.94,-5.61 -0.94,-5.61 -0.94,-5.61 7.28,-7.45 15.51,-9.29 16.31,-9.19 17.11,-9.10 17.86,-8.81 18.62,-8.53 19.28,-8.07 19.94,-7.61 20.48,-7.01 21.01,-6.41 21.38,-5.70 21.76,-4.98 21.95,-4.20 22.14,-3.42 22.14,-2.62 22.14,-1.81 21.95,-1.03 21.76,-0.25 21.38,0.45 21.01,1.17 20.48,1.77 19.94,2.37 19.28,2.83 18.62,3.28 17.87,3.57 17.11,3.86 16.31,3.95 15.52,4.05 13.22,3.88 10.93,3.70 8.45,3.60 5.96,3.50 3.79,3.39 1.62,3.28 -0.93,3.18 -3.49,3.08 -6.28,2.96 -9.08,2.84 -12.68,2.73 -16.28,2.62 -18.63,2.59 -20.98,2.57 -23.69,2.60 -26.39,2.62 -29.16,2.68 -31.93,2.73 -34.36,2.76 -36.78,2.78 -40.45,2.88 -44.13,2.98 -46.29,3.32 -48.44,3.67 -50.96,4.21 -53.47,4.76 -56.19,5.37 -58.92,5.97 -61.93,6.68 -64.94,7.39 -67.90,8.11 -70.87,8.84 -75.26,9.90 -79.65,10.97 -81.84,11.54 -84.03,12.11 -86.31,12.71 -88.59,13.30 -91.07,13.98 -93.55,14.67 -96.07,15.30 -98.58,15.94 -100.71,16.34 -102.85,16.74 -106.06,17.61 -109.27,18.48 -112.41,20.27 -115.56,22.05 -117.69,23.59 -119.83,25.13 -122.42,27.14 -125.01,29.15 -128.08,31.69 -131.15,34.24 -134.75,37.24 -138.35,40.24 -142.56,43.61 -146.77,46.97 -149.19,48.89 -151.62,50.82 -153.93,52.65 -156.25,54.48 -158.53,56.40 -160.82,58.32 -163.21,60.60 -165.60,62.89 -167.98,65.54 -170.36,68.19 -172.57,71.51 -174.78,74.83 -176.61,78.90 -178.43,82.97 -179.63,88.15 -180.82,93.34 -181.24,100.02 -181.66,106.71 -181.62,114.92 -181.58,123.14 -181.50,132.34 -181.42,141.54 -181.27,150.93 -181.12,160.32 -180.81,168.31 -180.50,176.31 -179.85,181.73 -179.19,187.15 -178.33,190.78 -177.48,194.41 -176.41,197.30 -175.34,200.20 -173.64,203.08 -171.94,205.96 -169.65,209.11 -167.37,212.26 -164.39,215.60 -161.42,218.94 -157.46,222.23 -153.50,225.53 -148.39,229.05 -143.28,232.57 -136.96,236.20 -130.63,239.82 -123.15,243.26 -115.68,246.70 -107.35,250.02 -99.03,253.34 -89.73,256.63 -80.44,259.92 -69.29,263.19 -58.15,266.46 -45.06,269.22 -31.97,271.98 -18.21,273.03 -4.45,274.08 9.53,273.26 23.52,272.44 36.43,270.14 49.35,267.83 58.48,264.49 67.62,261.15 74.18,257.14 80.73,253.13 87.34,247.73 93.94,242.33 100.62,236.00 107.29,229.66 113.28,223.02 119.27,216.37 124.24,209.91 129.22,203.46 132.55,198.30 135.88,193.13 137.20,188.98 138.53,184.82 138.53,180.89 138.54,176.96 138.16,173.43 137.77,169.91 136.98,166.76 136.19,163.61 134.82,160.46 133.44,157.30 131.71,154.14 129.97,150.98 128.12,148.15 126.27,145.31 124.66,143.18 123.04,141.04 121.41,139.55 119.77,138.05 117.66,136.72 115.55,135.39 112.59,133.92 109.62,132.45 105.37,130.87 101.11,129.29 95.82,127.49 90.54,125.70 84.61,123.93 78.68,122.16 72.41,120.47 66.14,118.78 59.69,117.08 53.25,115.37 47.00,113.66 40.74,111.95 34.93,110.15 29.11,108.34 24.00,106.21 18.88,104.09 15.02,101.58 11.16,99.08 8.78,96.11 6.40,93.13 5.75,90.42 5.09,87.71 5.42,85.01 5.75,82.32 6.87,79.65 7.99,76.99 10.16,74.21 12.33,71.44 14.18,69.56 16.03,67.68 18.42,65.47 20.81,63.25 23.74,60.08 26.67,56.90 30.21,52.63 33.74,48.36 37.14,43.59 40.54,38.82 42.92,34.66 45.29,30.50 46.38,27.38 47.46,24.26 47.74,21.60 48.02,18.93 47.98,16.55 47.93,14.16 47.90,11.35 47.86,8.55 46.07,6.49 44.28,4.43 41.59,4.14 38.90,3.84 36.44,3.67 33.98,3.49 30.51,3.42 27.05,3.35 22.70,3.48 18.35,3.62 13.83,3.80 9.31,3.98 4.65,4.23 0,4.47 -0.53,4.40 -1.07,4.34 -1.57,4.15 -2.07,3.96 -2.52,3.65 -2.96,3.34 -3.32,2.94 -3.68,2.54 -3.93,2.06 -4.18,1.58 -4.31,1.06 -4.44,0.53 -4.44,-0.00 -4.44,-0.53 -4.31,-1.06 -4.18,-1.58 -3.93,-2.06 -3.68,-2.54 -3.32,-2.94 -2.96,-3.34 -2.52,-3.65 -2.07,-3.96 -1.57,-4.15 -1.07,-4.34 -0.53,-4.40 0.00,-4.47 0.00,-4.47 L 0,-4.47 Z"></path></g><g stroke-linecap="round" transform="translate(309.4900315818992 115.93972208599575) rotate(0 305.0352611300732 305.0352611300732)"><path d="M0 0 C220.56 -1.29, 441.63 -2.55, 610.07 0 M0 0 C207.33 2.01, 415.11 2, 610.07 0 M610.07 0 C608.73 177.12, 609.48 353.97, 610.07 610.07 M610.07 0 C611.43 217.64, 610.94 435.87, 610.07 610.07 M610.07 610.07 C436.81 609.33, 263.46 608.93, 0 610.07 M610.07 610.07 C484.21 611.8, 358.46 611.73, 0 610.07 M0 610.07 C1.99 412.65, 1.62 217.3, 0 0 M0 610.07 C-0.83 378.58, -1.18 146.8, 0 0" stroke="#1e1e1e" stroke-width="2" fill="none"></path></g><g stroke-linecap="round"><g transform="translate(617.3722803256297 113.21836467274716) rotate(0 0 301.42624692335573)"><path d="M0 0 C-1.59 147.54, -2.55 294.65, 0 602.85 M0 0 C2.2 138.66, 1.57 277.69, 0 602.85" stroke="#1e1e1e" stroke-width="2" fill="none"></path></g></g><mask></mask><g stroke-linecap="round"><g transform="translate(463.7377680487732 119.77611501975048) rotate(0 0 301.42624692335573)"><path d="M0 0 C1.44 151.31, 1.24 302.24, 0 602.85 M0 0 C1.55 154.02, 2.23 307.42, 0 602.85" stroke="#1e1e1e" stroke-width="2" fill="none"></path></g></g><mask></mask><g stroke-linecap="round"><g transform="translate(771.435138933903 114.8626344259485) rotate(0 0 301.42624692335573)"><path d="M0 0 C-1.64 216.4, -1.44 432.17, 0 602.85 M0 0 C-1.57 165.5, -2.2 331.74, 0 602.85" stroke="#1e1e1e" stroke-width="2" fill="none"></path></g></g><mask></mask><g stroke-linecap="round"><g transform="translate(315.0099562172675 400.185027831026) rotate(0 304.6919165355287 0)"><path d="M0 0 C230.39 -2.53, 461.5 -1.17, 609.38 0 M0 0 C135.86 -0.67, 271.87 -1.01, 609.38 0" stroke="#1e1e1e" stroke-width="2" fill="none"></path></g></g><mask></mask><g stroke-linecap="round"><g transform="translate(310.91522042584074 257.66079448532514) rotate(0 304.6919165355287 0)"><path d="M0 0 C230.42 2.67, 459.59 1.39, 609.38 0 M0 0 C202.61 -0.95, 405.69 -0.76, 609.38 0" stroke="#1e1e1e" stroke-width="2" fill="none"></path></g></g><mask></mask><g stroke-linecap="round"><g transform="translate(312.6925575718792 560.5073225090707) rotate(0 304.6919165355287 0)"><path d="M0 0 C133.51 -2.75, 268.51 -2.39, 609.38 0 M0 0 C201.71 1.28, 402.7 1.66, 609.38 0" stroke="#1e1e1e" stroke-width="2" fill="none"></path></g></g><mask></mask><g stroke-linecap="round" transform="translate(311.2707643647541 561.4896288914956) rotate(0 75.35482697321822 82.79006582297086)"><path d="M0 0 C57.4 -0.26, 112 -2.05, 150.71 0 M0 0 C44.99 1.48, 90.89 0.62, 150.71 0 M150.71 0 C150.9 59.76, 150.04 123.31, 150.71 165.58 M150.71 0 C152.73 49.44, 152.06 101.51, 150.71 165.58 M150.71 165.58 C116.23 165.08, 85.17 164.11, 0 165.58 M150.71 165.58 C91.86 166.3, 34.57 165.26, 0 165.58 M0 165.58 C2.06 127.68, 1.52 84.93, 0 0 M0 165.58 C0.73 102.07, 1.15 36.96, 0 0" stroke="#e03131" stroke-width="4" fill="none"></path></g><g stroke-linecap="round"><g transform="translate(149.4452541857462 605.7258370993832) rotate(0 74.62076481079941 22.13954556882811)"><path d="M0 0 C12.22 7.38, 48.42 37.58, 73.3 44.28 C98.17 50.98, 136.58 40.88, 149.24 40.2 M0 0 C12.22 7.38, 48.42 37.58, 73.3 44.28 C98.17 50.98, 136.58 40.88, 149.24 40.2" stroke="#868e96" stroke-width="4" fill="none"></path></g><g transform="translate(149.4452541857462 605.7258370993832) rotate(0 74.62076481079941 22.13954556882811)"><path d="M127.18 51.96 C135.89 47.32, 144.61 42.67, 149.24 40.2 M127.18 51.96 C135.67 47.44, 144.16 42.91, 149.24 40.2" stroke="#868e96" stroke-width="4" fill="none"></path></g><g transform="translate(149.4452541857462 605.7258370993832) rotate(0 74.62076481079941 22.13954556882811)"><path d="M124.78 35.03 C134.44 37.07, 144.11 39.12, 149.24 40.2 M124.78 35.03 C134.2 37.02, 143.61 39.01, 149.24 40.2" stroke="#868e96" stroke-width="4" fill="none"></path></g></g><mask></mask><g stroke-linecap="round"><g transform="translate(236.87852256338272 157.6469446447653) rotate(0 105.82162468925452 40.81577354717376)"><path d="M0 0 C20.26 2.77, 86.27 3.01, 121.54 16.62 C156.82 30.22, 196.63 70.8, 211.64 81.63 M0 0 C20.26 2.77, 86.27 3.01, 121.54 16.62 C156.82 30.22, 196.63 70.8, 211.64 81.63" stroke="#868e96" stroke-width="4" fill="none"></path></g><g transform="translate(236.87852256338272 157.6469446447653) rotate(0 105.82162468925452 40.81577354717376)"><path d="M188.14 73.11 C194.11 75.28, 200.08 77.44, 211.64 81.63 M188.14 73.11 C193.6 75.09, 199.05 77.07, 211.64 81.63" stroke="#868e96" stroke-width="4" fill="none"></path></g><g transform="translate(236.87852256338272 157.6469446447653) rotate(0 105.82162468925452 40.81577354717376)"><path d="M199.12 60 C202.3 65.49, 205.48 70.99, 211.64 81.63 M199.12 60 C202.02 65.02, 204.93 70.04, 211.64 81.63" stroke="#868e96" stroke-width="4" fill="none"></path></g></g><mask></mask><g transform="translate(403.2152003937596 10) rotate(0 215.0098876953125 22.5)"><text x="0" y="31.536" font-family="Virgil, Segoe UI Emoji" font-size="36px" fill="#1e1e1e" text-anchor="start" style="white-space: pre;" direction="ltr" dominant-baseline="alphabetic">File vs Tiled Geometries</text></g><g transform="translate(10 134.52819776376725) rotate(0 106.61990356445312 25)"><text x="0" y="17.52" font-family="Virgil, Segoe UI Emoji" font-size="20px" fill="#1e1e1e" text-anchor="start" style="white-space: pre;" direction="ltr" dominant-baseline="alphabetic">Complex, large polygon</text><text x="0" y="42.519999999999996" font-family="Virgil, Segoe UI Emoji" font-size="20px" fill="#1e1e1e" text-anchor="start" style="white-space: pre;" direction="ltr" dominant-baseline="alphabetic">e.g. watershed</text></g><g transform="translate(69.64679052341774 560.3920363140727) rotate(0 72.45993041992188 12.5)"><text x="0" y="17.52" font-family="Virgil, Segoe UI Emoji" font-size="20px" fill="#1e1e1e" text-anchor="start" style="white-space: pre;" direction="ltr" dominant-baseline="alphabetic">Individual tiles</text></g></svg>