<svg version="1.1" xmlns="http://www.w3.org/2000/svg" viewBox="0 0 994.5701574320956 737.0697605374373" width="1989.1403148641912" height="1474.1395210748747">
  <!-- svg-source:excalidraw -->
  
  <defs>
    <style class="style-fonts">
      @font-face {
        font-family: "Virgil";
        src: url("https://excalidraw.com/Virgil.woff2");
      }
      @font-face {
        font-family: "Cascadia";
        src: url("https://excalidraw.com/Cascadia.woff2");
      }
      @font-face {
        font-family: "Assistant";
        src: url("https://excalidraw.com/Assistant-Regular.woff2");
      }
    </style>
    
  </defs>
  <g stroke-linecap="round" transform="translate(369.4405229301947 115.93972208599575) rotate(0 305.0352611300732 305.0352611300732)"><path d="M0 0 C220.56 -1.29, 441.63 -2.55, 610.07 0 M0 0 C207.33 2.01, 415.11 2, 610.07 0 M610.07 0 C608.73 177.12, 609.48 353.97, 610.07 610.07 M610.07 0 C611.43 217.64, 610.94 435.87, 610.07 610.07 M610.07 610.07 C436.81 609.33, 263.46 608.93, 0 610.07 M610.07 610.07 C484.21 611.8, 358.46 611.73, 0 610.07 M0 610.07 C1.99 412.65, 1.62 217.3, 0 0 M0 610.07 C-0.83 378.58, -1.18 146.8, 0 0" stroke="#ffffff" stroke-width="2" fill="none"></path></g><g stroke-linecap="round"><g transform="translate(677.5486484694004 111.80115031347032) rotate(0 0 301.42624692335573)"><path d="M0 0 C-1.59 147.54, -2.55 294.65, 0 602.85" stroke="#ffffff" stroke-width="2.5" fill="none" stroke-dasharray="8 10"></path></g></g><mask></mask><g stroke-linecap="round"><g transform="translate(523.9141361925439 118.35890066047364) rotate(0 0 301.42624692335573)"><path d="M0 0 C1.44 151.31, 1.24 302.24, 0 602.85" stroke="#ffffff" stroke-width="2.5" fill="none" stroke-dasharray="8 10"></path></g></g><mask></mask><g stroke-linecap="round"><g transform="translate(831.6115070776737 113.44542006667166) rotate(0 0 301.42624692335573)"><path d="M0 0 C-1.64 216.4, -1.44 432.17, 0 602.85" stroke="#ffffff" stroke-width="2.5" fill="none" stroke-dasharray="8 10"></path></g></g><mask></mask><g stroke-linecap="round"><g transform="translate(375.18632436103815 398.76781347174915) rotate(0 304.6919165355287 0)"><path d="M0 0 C230.39 -2.53, 461.5 -1.17, 609.38 0" stroke="#ffffff" stroke-width="2.5" fill="none" stroke-dasharray="8 10"></path></g></g><mask></mask><g stroke-linecap="round"><g transform="translate(371.0915885696114 256.2435801260483) rotate(0 304.6919165355287 0)"><path d="M0 0 C230.42 2.67, 459.59 1.39, 609.38 0" stroke="#ffffff" stroke-width="2.5" fill="none" stroke-dasharray="8 10"></path></g></g><mask></mask><g stroke-linecap="round"><g transform="translate(372.8689257156499 559.0901081497939) rotate(0 304.6919165355287 0)"><path d="M0 0 C133.51 -2.75, 268.51 -2.39, 609.38 0" stroke="#ffffff" stroke-width="2.5" fill="none" stroke-dasharray="8 10"></path></g></g><mask></mask><g stroke-linecap="round" transform="translate(371.540128943887 558.2179066625204) rotate(0 75.81933074646781 84.42592693745848)"><path d="M0 0 C57.75 -0.27, 112.68 -2.05, 151.64 0 M0 0 C45.27 1.49, 91.46 0.62, 151.64 0 M151.64 0 C151.85 60.98, 150.99 125.74, 151.64 168.85 M151.64 0 C153.68 50.43, 153.02 103.5, 151.64 168.85 M151.64 168.85 C116.96 168.35, 85.69 167.38, 0 168.85 M151.64 168.85 C92.43 169.57, 34.78 168.53, 0 168.85 M0 168.85 C2.06 130.16, 1.53 86.64, 0 0 M0 168.85 C0.75 104.08, 1.17 37.71, 0 0" stroke="#e03131" stroke-width="4" fill="none"></path></g><g stroke-linecap="round"><g transform="translate(209.9418216974468 605.7258370993832) rotate(0 74.62076481079941 22.13954556882811)"><path d="M0 0 C12.22 7.38, 48.42 37.71, 73.3 44.28 C98.17 50.85, 136.58 40.23, 149.24 39.42 M0 0 C12.22 7.38, 48.42 37.71, 73.3 44.28 C98.17 50.85, 136.58 40.23, 149.24 39.42" stroke="#ced4da" stroke-width="2" fill="none"></path></g><g transform="translate(209.9418216974468 605.7258370993832) rotate(0 74.62076481079941 22.13954556882811)"><path d="M127.32 51.43 C135.98 46.69, 144.64 41.94, 149.24 39.42 M127.32 51.43 C135.75 46.81, 144.19 42.18, 149.24 39.42" stroke="#ced4da" stroke-width="2" fill="none"></path></g><g transform="translate(209.9418216974468 605.7258370993832) rotate(0 74.62076481079941 22.13954556882811)"><path d="M124.73 34.53 C134.41 36.46, 144.09 38.39, 149.24 39.42 M124.73 34.53 C134.16 36.41, 143.6 38.29, 149.24 39.42" stroke="#ced4da" stroke-width="2" fill="none"></path></g></g><mask></mask><g stroke-linecap="round"><g transform="translate(322.17460410635147 159.9039148596843) rotate(0 93.3082662073366 39.57368697343041)"><path d="M0 0 C16.09 2.36, 65.41 0.94, 96.52 14.13 C127.62 27.32, 171.6 68.31, 186.62 79.15 M0 0 C16.09 2.36, 65.41 0.94, 96.52 14.13 C127.62 27.32, 171.6 68.31, 186.62 79.15" stroke="#ced4da" stroke-width="2" fill="none"></path></g><g transform="translate(322.17460410635147 159.9039148596843) rotate(0 93.3082662073366 39.57368697343041)"><path d="M162.97 71.03 C168.98 73.09, 174.98 75.15, 186.62 79.15 M162.97 71.03 C168.46 72.92, 173.95 74.8, 186.62 79.15" stroke="#ced4da" stroke-width="2" fill="none"></path></g><g transform="translate(322.17460410635147 159.9039148596843) rotate(0 93.3082662073366 39.57368697343041)"><path d="M173.72 57.73 C177 63.17, 180.27 68.61, 186.62 79.15 M173.72 57.73 C176.71 62.7, 179.71 67.68, 186.62 79.15" stroke="#ced4da" stroke-width="2" fill="none"></path></g></g><mask></mask><g transform="translate(463.4845649728925 10) rotate(0 215.0098876953125 22.5)"><text x="0" y="31.536" font-family="Virgil, Segoe UI Emoji" font-size="36px" fill="#ffffff" text-anchor="start" style="white-space: pre;" direction="ltr" dominant-baseline="alphabetic">File vs Tiled Geometries</text></g><g transform="translate(10 127.69894091160131) rotate(0 149.2679443359375 35)"><text x="0" y="24.528" font-family="Virgil, Segoe UI Emoji" font-size="28px" fill="#ffffff" text-anchor="start" style="white-space: pre;" direction="ltr" dominant-baseline="alphabetic">Complex, large polygon</text><text x="0" y="59.528" font-family="Virgil, Segoe UI Emoji" font-size="28px" fill="#ffffff" text-anchor="start" style="white-space: pre;" direction="ltr" dominant-baseline="alphabetic">e.g. watershed</text></g><g transform="translate(97.69877926444667 555.3920363140727) rotate(0 101.4439468383789 17.5)"><text x="0" y="24.528" font-family="Virgil, Segoe UI Emoji" font-size="28px" fill="#ffffff" text-anchor="start" style="white-space: pre;" direction="ltr" dominant-baseline="alphabetic">Individual tiles</text></g><g transform="translate(672.1539421772811 217.23518118415654) rotate(0 7.48935650155687 174.33129107895934)" stroke="none"><path d="M30.68 -2.55 C40.07 -3.89, 74.49 -4.4, 84.93 -3.11 C95.37 -1.82, 91.41 4.07, 93.32 5.19 C95.22 6.31, 96.54 2.48, 96.37 3.59 C96.2 4.71, 91.87 7.63, 92.31 11.87 C92.76 16.12, 98.85 24.11, 99.03 29.06 C99.22 34.01, 95.52 38.48, 93.41 41.59 C91.31 44.7, 88.65 44.25, 86.39 47.75 C84.13 51.25, 86.69 54.31, 79.85 62.59 C73 70.86, 50.89 90.55, 45.33 97.37 C39.77 104.19, 46.19 100.58, 46.46 103.52 C46.73 106.47, 47.25 112.34, 46.94 115.07 C46.63 117.8, 44.17 119, 44.6 119.92 C45.04 120.84, 45.88 119.07, 49.54 120.6 C53.19 122.14, 62.74 126.75, 66.55 129.14 C70.35 131.53, 58.83 129.96, 72.36 134.94 C85.89 139.93, 131.21 153.55, 147.74 159.04 C164.28 164.54, 166.26 165.7, 171.57 167.92 C176.87 170.13, 177.54 169.74, 179.55 172.34 C181.56 174.95, 181.64 178.43, 183.63 183.53 C185.63 188.63, 189.71 198.52, 191.52 202.94 C193.34 207.35, 193.8 205.92, 194.53 210.01 C195.26 214.1, 195.39 222.73, 195.9 227.48 C196.41 232.22, 198.44 234.45, 197.59 238.48 C196.74 242.51, 196.65 243.83, 190.81 251.66 C184.96 259.49, 168.98 276.64, 162.51 285.46 C156.04 294.28, 156.44 298.14, 151.98 304.56 C147.53 310.99, 141.82 318.68, 135.76 324.02 C129.71 329.36, 121.43 333.75, 115.66 336.58 C109.89 339.41, 107.98 338.6, 101.14 340.99 C94.3 343.38, 85.12 349.36, 74.64 350.92 C64.15 352.48, 50.1 350.18, 38.23 350.34 C26.36 350.51, 15.47 352.88, 3.42 351.9 C-8.64 350.92, -23.63 347.17, -34.1 344.44 C-44.58 341.71, -47.86 339.6, -59.44 335.52 C-71.02 331.43, -90.32 325.66, -103.6 319.92 C-116.89 314.18, -130.91 305.99, -139.13 301.08 C-147.36 296.17, -148.46 295.09, -152.95 290.46 C-157.45 285.83, -161.98 280.25, -166.09 273.31 C-170.21 266.37, -174.12 256.22, -177.64 248.82 C-181.15 241.42, -185.51 250.76, -187.17 228.88 C-188.84 207, -188.31 138.62, -187.63 117.53 C-186.96 96.44, -184.66 106, -183.15 102.34 C-181.63 98.68, -180.93 99.77, -178.53 95.57 C-176.14 91.38, -173.28 82.96, -168.77 77.18 C-164.25 71.4, -163.08 70.6, -151.43 60.9 C-139.78 51.19, -108.16 26.05, -98.87 18.95 C-89.58 11.84, -98.85 19.64, -95.69 18.27 C-92.52 16.9, -86.14 12.86, -79.88 10.72 C-73.62 8.57, -69.08 8.09, -58.13 5.41 C-47.19 2.73, -32.66 -4.32, -14.21 -5.35 C4.25 -6.38, 44.64 -2.1, 52.6 -0.76 C60.55 0.58, 37.47 2, 33.52 2.69" stroke="none" stroke-width="0" fill="#e5ff44" fill-rule="evenodd"></path><path fill="#1e1e1e" d="M 31.91,-3.64 Q 31.91,-3.64 37.38,-3.41 42.84,-3.18 48.14,-3.01 53.44,-2.84 58.54,-2.71 63.64,-2.58 67.71,-2.53 71.78,-2.49 74.67,-2.65 77.55,-2.82 80.70,-3.16 83.86,-3.50 87.37,-3.46 90.88,-3.43 92.94,-2.06 94.99,-0.70 96.40,1.33 97.80,3.36 98.62,5.65 99.44,7.94 99.79,10.44 100.15,12.93 100.27,15.49 100.38,18.04 100.33,21.23 100.28,24.42 99.50,28.67 98.73,32.91 96.54,37.99 94.34,43.06 90.68,48.79 87.02,54.53 82.48,60.59 77.95,66.64 73.40,72.01 68.86,77.38 65.12,81.36 61.39,85.34 58.63,88.27 55.87,91.20 54.17,93.59 52.47,95.97 50.90,99.34 49.34,102.71 49.17,105.47 49.01,108.23 49.64,111.20 50.28,114.16 51.89,115.99 53.50,117.82 56.73,120.61 59.97,123.39 64.95,126.11 69.93,128.84 76.17,131.33 82.41,133.82 89.49,136.23 96.57,138.64 104.01,141.00 111.45,143.36 118.76,145.65 126.07,147.94 133.07,150.32 140.06,152.70 146.34,155.08 152.61,157.46 157.67,159.55 162.72,161.63 166.43,163.34 170.15,165.05 173.02,166.45 175.90,167.85 178.58,169.82 181.26,171.79 183.84,175.07 186.42,178.34 188.73,182.41 191.05,186.47 193.12,190.82 195.18,195.16 196.85,199.43 198.53,203.71 199.60,208.25 200.66,212.79 201.11,217.81 201.55,222.83 201.38,228.28 201.20,233.73 199.34,239.88 197.48,246.03 193.14,253.22 188.81,260.41 182.76,268.71 176.71,277.02 169.50,285.53 162.29,294.04 154.27,302.15 146.26,310.27 138.32,317.19 130.39,324.12 122.36,329.40 114.33,334.68 103.09,339.13 91.84,343.59 76.20,346.62 60.55,349.66 43.79,350.73 27.02,351.79 10.49,350.46 -6.04,349.13 -21.78,345.59 -37.51,342.05 -50.81,337.87 -64.10,333.69 -75.16,329.49 -86.21,325.30 -96.08,321.07 -105.96,316.84 -114.86,312.45 -123.77,308.05 -131.42,303.36 -139.07,298.67 -145.27,294.10 -151.46,289.53 -156.31,285.21 -161.16,280.90 -164.94,276.39 -168.73,271.88 -171.61,267.75 -174.50,263.63 -176.75,259.93 -179.00,256.24 -180.66,252.17 -182.31,248.09 -183.44,242.98 -184.57,237.87 -185.30,230.63 -186.03,223.39 -186.33,213.09 -186.64,202.78 -186.76,190.90 -186.89,179.01 -186.94,167.41 -187.00,155.81 -187.02,145.45 -187.04,135.09 -186.52,126.48 -186.00,117.86 -184.52,110.87 -183.04,103.87 -180.72,98.21 -178.40,92.56 -175.60,87.96 -172.80,83.36 -169.90,79.65 -167.01,75.94 -164.21,72.77 -161.41,69.60 -158.80,66.84 -156.18,64.08 -153.53,61.49 -150.88,58.91 -148.10,56.33 -145.32,53.76 -140.05,49.61 -134.78,45.46 -130.49,41.91 -126.21,38.35 -122.62,35.24 -119.03,32.12 -116.13,29.47 -113.22,26.82 -110.92,24.58 -108.61,22.34 -106.83,20.59 -105.04,18.85 -103.09,17.35 -101.14,15.86 -98.97,14.65 -96.80,13.44 -94.21,12.51 -91.63,11.58 -88.85,10.85 -86.07,10.12 -83.39,9.31 -80.71,8.50 -77.88,7.62 -75.05,6.75 -72.36,5.91 -69.67,5.07 -67.14,4.25 -64.61,3.44 -62.16,2.68 -59.72,1.92 -56.85,1.17 -53.98,0.43 -50.28,-0.26 -46.59,-0.96 -43.01,-1.66 -39.44,-2.37 -36.28,-3.11 -33.12,-3.85 -30.21,-4.59 -27.30,-5.33 -24.57,-5.94 -21.84,-6.54 -19.27,-6.88 -16.70,-7.22 -14.17,-7.40 -11.65,-7.57 -8.67,-7.61 -5.69,-7.64 -2.40,-7.60 0.89,-7.55 4.08,-7.53 7.27,-7.50 10.03,-7.54 12.79,-7.58 15.13,-7.66 17.46,-7.73 21.03,-7.91 24.60,-8.09 27.75,-8.24 30.90,-8.39 33.42,-8.52 35.95,-8.64 38.33,-8.78 40.71,-8.93 43.77,-9.05 46.82,-9.17 48.47,-9.11 50.12,-9.06 50.90,-8.97 51.67,-8.87 52.41,-8.59 53.14,-8.32 53.78,-7.87 54.42,-7.43 54.94,-6.84 55.46,-6.26 55.83,-5.56 56.19,-4.87 56.38,-4.11 56.56,-3.35 56.56,-2.57 56.56,-1.78 56.38,-1.02 56.19,-0.26 55.83,0.42 55.46,1.11 54.94,1.70 54.42,2.28 53.78,2.73 53.14,3.17 52.40,3.45 51.67,3.73 50.90,3.82 50.12,3.92 41.51,5.04 32.90,6.17 32.01,6.18 31.11,6.20 30.26,5.92 29.40,5.65 28.68,5.12 27.96,4.59 27.45,3.86 26.93,3.13 26.68,2.27 26.42,1.41 26.46,0.52 26.49,-0.37 26.81,-1.20 27.13,-2.04 27.69,-2.73 28.26,-3.42 29.02,-3.90 29.78,-4.37 30.65,-4.58 31.52,-4.79 32.41,-4.70 33.30,-4.62 34.12,-4.26 34.94,-3.90 35.60,-3.29 36.26,-2.69 36.69,-1.90 37.13,-1.12 37.28,-0.24 37.44,0.63 37.31,1.52 37.18,2.40 36.78,3.20 36.37,4.00 35.73,4.62 35.09,5.25 34.29,5.64 33.48,6.03 32.59,6.14 31.71,6.25 30.83,6.07 29.95,5.89 29.18,5.45 28.40,5.00 27.81,4.33 27.22,3.65 26.88,2.83 26.53,2.00 26.47,1.11 26.40,0.22 26.63,-0.64 26.86,-1.51 27.35,-2.26 27.83,-3.00 28.54,-3.56 29.24,-4.11 30.09,-4.41 30.93,-4.71 30.93,-4.71 30.93,-4.71 40.52,-6.89 50.12,-9.06 50.90,-8.97 51.67,-8.87 52.40,-8.59 53.14,-8.32 53.78,-7.87 54.42,-7.43 54.94,-6.84 55.46,-6.26 55.83,-5.56 56.19,-4.87 56.38,-4.11 56.56,-3.35 56.56,-2.57 56.56,-1.79 56.38,-1.03 56.19,-0.27 55.83,0.42 55.46,1.11 54.94,1.70 54.42,2.28 53.78,2.73 53.14,3.17 52.41,3.45 51.67,3.73 50.90,3.82 50.12,3.92 48.47,3.73 46.82,3.55 43.77,3.43 40.71,3.31 38.33,3.17 35.95,3.02 33.42,2.90 30.90,2.77 27.75,2.62 24.61,2.48 21.03,2.30 17.46,2.12 15.13,2.05 12.81,1.97 10.05,1.94 7.29,1.91 4.12,1.95 0.94,1.99 -2.30,2.07 -5.56,2.15 -8.41,2.19 -11.27,2.23 -13.54,2.25 -15.81,2.26 -17.94,2.36 -20.08,2.46 -22.64,2.89 -25.19,3.33 -28.14,4.01 -31.09,4.69 -34.28,5.46 -37.47,6.23 -40.99,7.14 -44.51,8.06 -48.00,9.01 -51.48,9.96 -54.23,10.69 -56.98,11.42 -59.39,12.06 -61.81,12.70 -64.38,13.43 -66.95,14.16 -69.62,14.93 -72.30,15.70 -75.20,16.58 -78.09,17.46 -81.01,18.29 -83.93,19.11 -86.46,19.65 -88.99,20.18 -91.06,20.68 -93.14,21.19 -96.76,22.82 -100.38,24.45 -102.36,25.83 -104.33,27.22 -106.83,29.20 -109.32,31.17 -112.30,33.78 -115.28,36.38 -118.86,39.59 -122.44,42.81 -126.71,46.49 -130.98,50.17 -136.02,54.33 -141.06,58.48 -143.88,60.95 -146.70,63.42 -149.40,65.80 -152.10,68.17 -154.76,70.68 -157.42,73.18 -160.15,76.18 -162.87,79.18 -165.59,82.64 -168.32,86.10 -170.93,90.34 -173.54,94.58 -175.72,99.78 -177.90,104.98 -179.32,111.59 -180.75,118.19 -181.26,126.64 -181.77,135.08 -181.75,145.43 -181.73,155.78 -181.67,167.37 -181.61,178.95 -181.48,190.79 -181.35,202.63 -181.06,212.75 -180.76,222.86 -180.07,229.80 -179.38,236.73 -178.36,241.44 -177.34,246.14 -175.92,249.83 -174.50,253.52 -172.35,257.07 -170.19,260.62 -167.44,264.57 -164.69,268.51 -161.17,272.75 -157.65,276.98 -153.00,281.14 -148.34,285.30 -142.33,289.75 -136.32,294.20 -128.88,298.77 -121.44,303.34 -112.66,307.68 -103.89,312.01 -94.12,316.20 -84.35,320.39 -73.43,324.53 -62.52,328.67 -49.44,332.80 -36.35,336.92 -20.98,340.40 -5.61,343.88 10.54,345.21 26.70,346.54 43.13,345.51 59.56,344.49 74.74,341.58 89.93,338.68 100.69,334.46 111.46,330.25 119.18,325.19 126.91,320.13 134.70,313.34 142.48,306.54 150.35,298.57 158.23,290.60 165.31,282.23 172.39,273.87 178.30,265.74 184.21,257.61 188.25,251.00 192.30,244.39 194.00,238.95 195.70,233.51 195.84,228.43 195.97,223.34 195.53,218.73 195.09,214.13 194.06,210.03 193.04,205.93 191.34,201.91 189.65,197.90 187.56,193.86 185.47,189.83 183.18,186.22 180.89,182.61 178.83,179.90 176.78,177.19 174.76,175.31 172.75,173.43 170.24,171.81 167.72,170.19 164.18,168.47 160.64,166.75 155.64,164.75 150.64,162.74 144.44,160.46 138.24,158.18 131.29,155.92 124.33,153.66 116.98,151.49 109.63,149.33 102.09,147.13 94.55,144.94 87.24,142.71 79.93,140.49 73.18,138.15 66.43,135.80 60.56,133.06 54.69,130.32 50.28,127.25 45.88,124.17 43.17,120.76 40.46,117.34 39.86,112.40 39.25,107.46 39.94,104.50 40.62,101.55 42.42,98.64 44.21,95.73 45.68,93.72 47.15,91.70 49.26,89.34 51.37,86.97 54.09,84.07 56.81,81.18 60.31,77.21 63.80,73.25 68.02,67.90 72.25,62.55 76.35,56.57 80.46,50.59 83.43,45.28 86.40,39.97 87.77,35.79 89.15,31.62 89.37,28.08 89.59,24.54 89.46,21.51 89.33,18.47 89.19,14.71 89.04,10.94 88.59,8.36 88.14,5.78 86.00,5.37 83.86,4.95 80.70,4.61 77.55,4.27 74.67,4.11 71.78,3.94 67.71,3.99 63.64,4.04 58.54,4.16 53.44,4.29 48.14,4.46 42.84,4.64 37.38,4.87 31.91,5.10 31.39,5.03 30.87,4.97 30.37,4.78 29.88,4.60 29.45,4.30 29.01,4.00 28.66,3.60 28.31,3.21 28.07,2.74 27.82,2.27 27.70,1.76 27.57,1.25 27.57,0.72 27.57,0.20 27.70,-0.31 27.82,-0.82 28.07,-1.29 28.31,-1.75 28.66,-2.15 29.01,-2.54 29.45,-2.84 29.88,-3.14 30.37,-3.33 30.87,-3.52 31.39,-3.58 31.91,-3.64 31.91,-3.64 L 31.91,-3.64 Z"></path></g></svg>