<svg width="755" height="312" viewBox="0 0 755 312" fill="none" xmlns="http://www.w3.org/2000/svg">
<path d="M88.0009 114.019L85.5077 109.634L82.957 111.084V114.019H88.0009ZM87.9725 231.433L126.117 253.621L131.189 244.901L93.0447 222.713L87.9725 231.433ZM184.493 164.313L138.769 137.715L133.697 146.435L179.421 173.033L184.493 164.313ZM138.769 137.715L90.537 109.659L85.4648 118.378L133.697 146.435L138.769 137.715ZM141.277 244.901V142.075H131.189L131.189 244.901H141.277ZM271.393 114.068L233.002 136.255L238.049 144.989L276.44 122.802L271.393 114.068ZM179.486 56.1951L133.74 82.208L138.726 90.9772L184.473 64.9643L179.486 56.1951ZM133.74 82.208L85.5077 109.634L90.4941 118.403L138.726 90.9772L133.74 82.208ZM233.002 136.255L138.741 82.2168L133.724 90.9684L227.985 145.007L233.002 136.255ZM276.355 105.285L235.493 82.2011L230.531 90.9841L271.393 114.068L276.355 105.285ZM235.493 82.2011L189.435 56.1812L184.473 64.9643L230.531 90.9841L235.493 82.2011ZM138.741 146.451L235.52 90.9684L230.503 82.2168L133.724 137.699L138.741 146.451ZM189.509 217.16V173.033L179.421 173.033V217.16H189.509ZM82.957 114.019V169.816H93.0447V114.019H82.957ZM82.957 169.816V222.713L93.0447 222.713V169.816H82.957ZM179.421 217.16L90.537 165.456L85.4648 174.176L174.349 225.88L179.421 217.16ZM179.421 217.16L174.349 225.88C181.074 229.792 189.509 224.94 189.509 217.16H179.421ZM233.002 136.255L227.985 145.007C231.103 146.795 234.937 146.788 238.049 144.989L233.002 136.255ZM126.117 253.621C132.842 257.533 141.277 252.681 141.277 244.901H131.189L126.117 253.621ZM179.421 173.033L189.509 173.033C189.509 169.44 187.598 166.119 184.493 164.313L179.421 173.033ZM184.473 64.9643L189.435 56.1812C186.347 54.4367 182.569 54.442 179.486 56.1951L184.473 64.9643ZM276.44 122.802C283.198 118.897 283.151 109.125 276.355 105.285L271.393 114.068L276.44 122.802ZM93.0447 222.713L82.957 222.713C82.957 226.305 84.8673 229.626 87.9725 231.433L93.0447 222.713Z" fill="#E5FF44"/>
<path d="M397.82 133.168H357.419V152.234H389.309V164.831H357.419V195.473H341.758V120.571H397.82V133.168ZM426.412 196.607C422.629 196.607 419.224 195.927 416.198 194.565C413.172 193.203 410.751 191.047 408.935 188.096C407.195 185.07 406.325 181.173 406.325 176.407V138.729H421.872V172.662C421.872 177.05 422.78 180.114 424.596 181.854C426.412 183.519 429.022 184.351 432.427 184.351C434.016 184.351 435.566 184.086 437.08 183.556C438.593 182.951 439.917 182.043 441.052 180.833C442.262 179.622 443.208 178.071 443.889 176.18C444.57 174.213 444.91 171.905 444.91 169.257V138.729H460.458V195.473H446.613L446.045 185.599C444.154 189.382 441.543 192.181 438.215 193.997C434.961 195.737 431.027 196.607 426.412 196.607ZM499.516 196.607C493.766 196.607 488.508 195.586 483.741 193.543C479.051 191.501 475.23 188.626 472.279 184.918L481.245 175.839C483.06 178.563 485.481 180.795 488.508 182.535C491.534 184.275 495.128 185.145 499.289 185.145C502.24 185.145 504.585 184.729 506.325 183.897C508.141 182.989 509.049 181.589 509.049 179.698C509.049 178.487 508.633 177.466 507.801 176.634C506.968 175.726 505.304 175.007 502.807 174.477L492.82 172.435C486.238 171.073 481.547 169.03 478.748 166.306C476.024 163.507 474.662 159.913 474.662 155.525C474.662 152.423 475.57 149.51 477.386 146.787C479.278 144.063 482.077 141.869 485.784 140.204C489.491 138.464 494.106 137.594 499.629 137.594C505.304 137.594 510.222 138.502 514.383 140.318C518.62 142.058 521.949 144.668 524.37 148.149L515.064 157.227C513.399 154.579 511.205 152.575 508.481 151.213C505.833 149.775 503.034 149.056 500.083 149.056C497.965 149.056 496.149 149.283 494.636 149.737C493.123 150.191 491.988 150.834 491.231 151.667C490.475 152.423 490.097 153.407 490.097 154.617C490.097 155.828 490.626 156.887 491.685 157.795C492.745 158.627 494.674 159.346 497.473 159.951L509.049 162.334C514.648 163.469 518.657 165.399 521.079 168.122C523.5 170.77 524.71 173.986 524.71 177.769C524.71 181.4 523.727 184.653 521.759 187.528C519.868 190.328 517.031 192.56 513.248 194.224C509.541 195.813 504.963 196.607 499.516 196.607ZM563.216 196.607C557.239 196.607 552.018 195.435 547.555 193.089C543.166 190.744 539.762 187.377 537.341 182.989C534.92 178.601 533.709 173.305 533.709 167.101C533.709 160.897 534.92 155.601 537.341 151.213C539.762 146.825 543.129 143.458 547.441 141.112C551.829 138.767 556.823 137.594 562.421 137.594C568.171 137.594 573.051 138.767 577.061 141.112C581.071 143.382 584.135 146.522 586.254 150.532C588.372 154.466 589.431 158.968 589.431 164.037C589.431 165.55 589.393 166.987 589.318 168.349C589.242 169.711 589.129 170.922 588.977 171.981H543.696V161.2H582.168L574.678 163.923C574.678 159.157 573.581 155.487 571.387 152.915C569.268 150.343 566.242 149.056 562.308 149.056C559.433 149.056 556.936 149.737 554.818 151.099C552.775 152.461 551.224 154.504 550.165 157.227C549.106 159.876 548.576 163.242 548.576 167.328C548.576 171.338 549.143 174.667 550.278 177.315C551.489 179.887 553.153 181.816 555.272 183.102C557.466 184.389 560.076 185.032 563.102 185.032C566.431 185.032 569.117 184.389 571.16 183.102C573.203 181.816 574.792 180.038 575.926 177.769L588.296 182.535C587.086 185.486 585.232 188.02 582.736 190.139C580.315 192.257 577.402 193.884 573.997 195.019C570.668 196.078 567.074 196.607 563.216 196.607ZM624.056 196.607C619.365 196.607 615.166 195.435 611.459 193.089C607.828 190.744 604.953 187.377 602.834 182.989C600.791 178.601 599.77 173.343 599.77 167.214C599.77 160.935 600.867 155.601 603.061 151.213C605.255 146.749 608.206 143.382 611.913 141.112C615.696 138.767 619.933 137.594 624.624 137.594C629.617 137.594 633.74 139.032 636.994 141.907C640.247 144.782 642.365 148.489 643.349 153.028L641.874 154.844V113.876H657.421V195.473H643.463L642.441 178.223L644.37 179.13C643.841 182.686 642.63 185.788 640.739 188.436C638.847 191.009 636.464 193.014 633.589 194.451C630.714 195.889 627.537 196.607 624.056 196.607ZM628.596 184.691C631.319 184.691 633.665 184.01 635.632 182.649C637.599 181.211 639.112 179.13 640.171 176.407C641.306 173.683 641.874 170.43 641.874 166.647C641.874 163.015 641.344 159.951 640.285 157.454C639.226 154.882 637.712 152.915 635.745 151.553C633.778 150.191 631.471 149.51 628.823 149.51C624.586 149.51 621.257 151.024 618.836 154.05C616.49 157.001 615.318 161.351 615.318 167.101C615.318 172.851 616.49 177.239 618.836 180.265C621.181 183.216 624.435 184.691 628.596 184.691Z" fill="white"/>
</svg>
