<?xml version="1.0" encoding="UTF-8" standalone="no"?>
<svg
   xmlns:dc="http://purl.org/dc/elements/1.1/"
   xmlns:cc="http://creativecommons.org/ns#"
   xmlns:rdf="http://www.w3.org/1999/02/22-rdf-syntax-ns#"
   xmlns:svg="http://www.w3.org/2000/svg"
   xmlns="http://www.w3.org/2000/svg"
   viewBox="0 0 310.66666 310.66666"
   height="310.66666"
   width="310.66666"
   xml:space="preserve"
   id="svg2"
   version="1.1"><metadata
     id="metadata8"><rdf:RDF><cc:Work
         rdf:about=""><dc:format>image/svg+xml</dc:format><dc:type
           rdf:resource="http://purl.org/dc/dcmitype/StillImage" /></cc:Work></rdf:RDF></metadata><defs
     id="defs6" /><g
     transform="matrix(1.3333333,0,0,-1.3333333,0,310.66667)"
     id="g10"><g
       transform="translate(43.916016,37.116699)"
       id="g12"><path
         id="path14"
         style="fill:#e5ff44;fill-opacity:1;fill-rule:nonzero;stroke:none"
         d="m 0,111.18329 -1.869893,3.28844 -1.913001,-1.08779 v -2.20065 z m 110.64348,-19.952821 -1.89285,3.275268 z m -3.7743,-0.0066 1.88145,3.28183 z M 30.488943,9.751358 28.58684,6.481445 Z m 39.978129,60.441284 -1.902108,-3.269905 z m 0.01698,81.069808 1.869888,-3.28844 z m 68.952628,-43.39175 -1.89286,3.27527 z m -0.0322,6.56891 -1.86069,-3.29364 z M 1.880791,26.392693 3.782894,29.662598 Z M -0.021312,23.122787 28.58684,6.481445 32.391045,13.021255 3.782894,29.662598 Z M 72.369171,73.462547 38.076035,93.410843 34.271828,86.871033 68.564964,66.922737 Z M 38.076035,93.410843 1.902103,114.4532 -1.902103,107.91338 34.271828,86.871033 Z m 1.88079,-80.389588 V 90.140938 H 32.391037 V 13.021255 Z m 97.586995,98.124715 -28.79319,-16.640233 3.78569,-6.550537 28.79321,16.64022 z m -68.929669,43.40492 -34.310112,-19.50968 3.739784,-6.57687 34.310112,19.50967 z m -34.310112,-19.50968 -36.173932,-20.56948 3.739786,-6.57688 36.17393,20.56949 z M 108.75063,94.505737 38.055374,135.03461 34.292488,128.47095 104.98773,87.94207 Z m 32.51458,23.227523 -30.6463,17.31316 -3.72139,-6.58728 30.6463,-17.31317 z m -30.6463,17.31316 -34.543577,19.51489 -3.72139,-6.5873 34.543577,-19.51487 z M 38.055374,86.8591 110.63966,128.47095 106.87677,135.03461 34.292488,93.422775 Z M 76.13076,33.827187 V 66.922729 H 68.564964 V 33.827187 Z M -3.782894,111.18329 V 69.335022 h 7.565788 v 41.848268 z m 0,-41.848268 V 29.662605 H 3.782894 V 69.335022 Z M 68.564972,33.827187 1.902103,72.604927 -1.902103,66.065117 64.760765,27.287369 Z m -8e-6,0 h 8e-6 l -3.804207,-6.539818 c 5.043816,-2.933983 11.369995,0.704719 11.369995,6.539818 z m 40.185666,60.67855 v 0 l -3.7629,-6.563667 c 2.33883,-1.340828 5.21445,-1.335823 7.54859,0.01313 z M 28.58684,6.481445 c 5.043832,-2.93399 11.369985,0.704727 11.369985,6.53981 h -7.565788 8e-6 z m 39.978124,60.441292 v -8e-6 h 7.565796 c 0,2.694199 -1.432739,5.185128 -3.761589,6.539818 z m 3.788971,81.051273 h 8e-6 l 3.72139,6.5873 c -2.315964,1.30836 -5.14888,1.30441 -7.461182,-0.0104 l 3.739784,-6.57688 z m 68.975595,-43.37859 c 5.06865,2.92928 5.03276,10.25831 -0.0643,13.13784 l -3.72139,-6.58729 v 0 l 3.78571,-6.55055 z M 3.782894,29.662598 v 7e-6 h -7.565788 c 0,-2.694198 1.432734,-5.185127 3.761582,-6.539818 z" /></g></g></svg>