<svg width="566" height="233" viewBox="0 0 566 233" fill="none" xmlns="http://www.w3.org/2000/svg">
<path d="M66 85.139L102.174 106.181M66 85.139L102.174 64.5695M66 85.139V126.987M102.174 106.181L136.467 126.13C137.631 126.807 138.348 128.052 138.348 129.4V162.495C138.348 165.413 135.185 167.232 132.663 165.765L66 126.987M102.174 106.181V183.301C102.174 186.219 99.0109 188.038 96.4889 186.571L67.8808 169.93C66.7164 169.252 66 168.007 66 166.66V126.987M102.174 106.181L174.758 64.5695M102.174 64.5695L136.484 45.0598C137.64 44.4024 139.057 44.4004 140.215 45.0546L174.758 64.5695M102.174 64.5695L172.869 105.098C174.039 105.769 175.476 105.766 176.643 105.092L205.437 88.4516C207.971 86.9869 207.953 83.3224 205.405 81.8827L174.758 64.5695" stroke="#E5FF44" stroke-width="7.56579"/>
<path d="M298.365 99.5013H268.064V113.801H291.981V123.248H268.064V146.229H256.318V90.0535H298.365V99.5013ZM319.809 147.081C316.971 147.081 314.418 146.57 312.148 145.549C309.878 144.527 308.063 142.91 306.701 140.697C305.396 138.427 304.743 135.505 304.743 131.93V103.672H316.404V129.121C316.404 132.412 317.085 134.711 318.447 136.016C319.809 137.264 321.766 137.888 324.32 137.888C325.511 137.888 326.674 137.69 327.809 137.292C328.944 136.838 329.937 136.158 330.788 135.25C331.696 134.342 332.406 133.179 332.916 131.76C333.427 130.285 333.682 128.554 333.682 126.568V103.672H345.343V146.229H334.959L334.533 138.824C333.115 141.662 331.157 143.761 328.66 145.123C326.221 146.428 323.27 147.081 319.809 147.081ZM374.637 147.081C370.324 147.081 366.38 146.315 362.806 144.783C359.288 143.25 356.422 141.094 354.209 138.314L360.933 131.505C362.295 133.547 364.111 135.221 366.38 136.526C368.65 137.831 371.345 138.484 374.466 138.484C376.679 138.484 378.438 138.172 379.744 137.548C381.105 136.867 381.786 135.817 381.786 134.398C381.786 133.491 381.474 132.725 380.85 132.1C380.226 131.419 378.977 130.88 377.105 130.483L369.615 128.951C364.678 127.93 361.16 126.398 359.061 124.355C357.018 122.255 355.996 119.56 355.996 116.269C355.996 113.942 356.677 111.758 358.039 109.715C359.458 107.672 361.557 106.027 364.338 104.778C367.118 103.473 370.579 102.821 374.722 102.821C378.977 102.821 382.666 103.502 385.787 104.864C388.964 106.169 391.461 108.126 393.277 110.736L386.297 117.546C385.049 115.56 383.403 114.056 381.361 113.035C379.375 111.956 377.275 111.417 375.062 111.417C373.473 111.417 372.112 111.588 370.977 111.928C369.842 112.269 368.991 112.751 368.423 113.375C367.856 113.942 367.572 114.68 367.572 115.588C367.572 116.496 367.969 117.29 368.764 117.971C369.558 118.595 371.005 119.135 373.105 119.588L381.786 121.376C385.985 122.227 388.993 123.674 390.808 125.717C392.624 127.703 393.532 130.114 393.532 132.952C393.532 135.675 392.794 138.115 391.319 140.271C389.901 142.371 387.773 144.045 384.936 145.293C382.155 146.485 378.722 147.081 374.637 147.081ZM422.411 147.081C417.929 147.081 414.013 146.201 410.666 144.442C407.374 142.683 404.821 140.158 403.005 136.867C401.189 133.576 400.282 129.604 400.282 124.951C400.282 120.298 401.189 116.326 403.005 113.035C404.821 109.743 407.346 107.218 410.58 105.459C413.872 103.7 417.617 102.821 421.816 102.821C426.128 102.821 429.788 103.7 432.796 105.459C435.803 107.162 438.101 109.517 439.69 112.524C441.279 115.475 442.073 118.851 442.073 122.653C442.073 123.787 442.045 124.866 441.988 125.887C441.931 126.908 441.846 127.816 441.733 128.611H407.772V120.525H436.626L431.008 122.567C431.008 118.993 430.185 116.241 428.54 114.311C426.951 112.382 424.681 111.417 421.731 111.417C419.574 111.417 417.702 111.928 416.113 112.949C414.581 113.971 413.418 115.503 412.623 117.546C411.829 119.532 411.432 122.057 411.432 125.121C411.432 128.128 411.857 130.625 412.708 132.611C413.616 134.54 414.865 135.987 416.453 136.952C418.099 137.917 420.057 138.399 422.326 138.399C424.823 138.399 426.837 137.917 428.37 136.952C429.902 135.987 431.093 134.654 431.944 132.952L441.222 136.526C440.314 138.739 438.924 140.64 437.051 142.229C435.235 143.818 433.051 145.038 430.497 145.889C428.001 146.683 425.305 147.081 422.411 147.081ZM468.042 147.081C464.524 147.081 461.374 146.201 458.594 144.442C455.87 142.683 453.714 140.158 452.125 136.867C450.593 133.576 449.827 129.632 449.827 125.036C449.827 120.326 450.65 116.326 452.296 113.035C453.941 109.687 456.154 107.162 458.934 105.459C461.772 103.7 464.949 102.821 468.467 102.821C472.212 102.821 475.305 103.899 477.745 106.055C480.185 108.211 481.774 110.992 482.511 114.396L481.405 115.758V85.0317H493.066V146.229H482.596L481.83 133.292L483.277 133.973C482.88 136.64 481.972 138.966 480.554 140.952C479.135 142.882 477.348 144.385 475.191 145.463C473.035 146.542 470.652 147.081 468.042 147.081ZM471.446 138.144C473.489 138.144 475.248 137.633 476.724 136.611C478.199 135.533 479.334 133.973 480.128 131.93C480.979 129.887 481.405 127.447 481.405 124.61C481.405 121.887 481.008 119.588 480.213 117.716C479.419 115.787 478.284 114.311 476.809 113.29C475.333 112.269 473.603 111.758 471.617 111.758C468.439 111.758 465.942 112.893 464.127 115.162C462.367 117.375 461.488 120.638 461.488 124.951C461.488 129.263 462.367 132.554 464.127 134.824C465.886 137.037 468.326 138.144 471.446 138.144Z" fill="white"/>
</svg>
