<svg width="233" height="233" viewBox="0 0 233 233" fill="none" xmlns="http://www.w3.org/2000/svg">
<rect width="233" height="233" fill="black"/>
<path d="M43.916 84.7L80.0899 105.742M43.916 84.7L80.0899 64.1305M43.916 84.7V126.548M80.0899 105.742L114.383 125.691C115.548 126.368 116.264 127.613 116.264 128.961V162.056C116.264 164.974 113.101 166.793 110.579 165.326L43.916 126.548M80.0899 105.742V182.862C80.0899 185.78 76.9269 187.599 74.405 186.132L45.7968 169.491C44.6324 168.813 43.916 167.568 43.916 166.221V126.548M80.0899 105.742L152.674 64.1305M80.0899 64.1305L114.4 44.6209C115.556 43.9634 116.973 43.9615 118.131 44.6156L152.674 64.1305M80.0899 64.1305L150.785 104.659C151.955 105.33 153.392 105.327 154.559 104.653L183.353 88.0126C185.887 86.548 185.869 82.8835 183.321 81.4437L152.674 64.1305" stroke="#E5FF44" stroke-width="7.56579"/>
</svg>
