<svg width="233" height="233" viewBox="0 0 233 233" fill="none" xmlns="http://www.w3.org/2000/svg">
<rect width="233" height="233" fill="black"/>
<path d="M43.916 84.6995L80.0899 105.742M43.916 84.6995L80.0899 64.13M43.916 84.6995V126.548M80.0899 105.742L114.383 125.69C115.548 126.368 116.264 127.613 116.264 128.96V162.056C116.264 164.973 113.101 166.793 110.579 165.326L43.916 126.548M80.0899 105.742V182.862C80.0899 185.779 76.9269 187.598 74.405 186.131L45.7968 169.49C44.6324 168.813 43.916 167.567 43.916 166.22V126.548M80.0899 105.742L152.674 64.13M80.0899 64.13L114.4 44.6204C115.556 43.9629 116.973 43.961 118.131 44.6152L152.674 64.13M80.0899 64.13L150.785 104.659C151.955 105.329 153.392 105.327 154.559 104.652L183.353 88.0121C185.887 86.5475 185.869 82.883 183.321 81.4432L152.674 64.13" stroke="#E5FF44" stroke-width="7.56579"/>
</svg>
